<svg width="92" height="81" viewBox="0 0 92 81" fill="none" xmlns="http://www.w3.org/2000/svg">
<path d="M67.4591 15.4743C63.4165 15.4743 60.1824 12.2691 60.1824 8.26256C60.1824 4.25605 63.4165 1.05085 67.4591 1.05085C71.5017 1.05085 74.7358 4.25605 74.7358 8.26256C74.7358 12.1689 71.5017 15.4743 67.4591 15.4743ZM14.905 13.9718C11.2667 13.9718 8.33576 11.0671 8.33576 7.46126C8.33576 3.8554 11.2667 0.950684 14.905 0.950684C18.5434 0.950684 21.4743 3.8554 21.4743 7.46126C21.4743 11.0671 18.5434 13.9718 14.905 13.9718ZM9.95281 15.9751L14.7029 20.0818L19.6551 15.9751H28.751V42.5182H56.6451L55.1291 30.2983L48.6609 38.4115L38.9586 26.4922L40.7778 25.0899H34.1075V10.7666H41.8895V24.1884L43.5066 22.8863L47.9535 28.5956L53.7142 18.2788V18.1787L53.9163 18.2788H62.3048L67.0549 22.3855L72.0071 18.2788H81.204L78.1721 42.5182H91.917V47.2258H22.7881L18.3412 80.6802H11.3677L7.12297 47.2258H0.957977V15.9751H9.95281Z" fill="black"/>
</svg>
