<svg width="115" height="111" viewBox="0 0 115 111" fill="none" xmlns="http://www.w3.org/2000/svg">
<path d="M113.759 44.0031C114.316 43.1727 114.554 42.1841 114.316 41.1954L105.577 2.79801C105.338 1.80941 104.743 1.01852 103.869 0.504449C103.034 0.0299186 102.041 -0.128258 101.088 0.109007L36.9767 14.5822C36.0234 14.7799 35.1892 15.3335 34.6331 16.1244C34.077 16.9548 33.8387 17.9434 34.077 18.9321L35.7851 26.4455L35.5467 26.0896C28.7543 30.5581 19.6579 38.981 18.8237 40.4441C15.1693 46.4944 15.6857 49.4997 16.4404 54.0473C16.5993 55.0359 16.7979 56.1827 16.9568 57.4481C17.5129 61.6794 15.8049 71.0118 13.7393 76.548L10.2041 74.8871C9.29045 74.4521 8.17823 74.8476 7.74129 75.7571L0.273544 91.3771C-0.163399 92.2866 0.233821 93.3938 1.14743 93.8288L35.1495 109.963C36.0631 110.398 37.1753 110.002 37.6123 109.093L45.08 93.4729C45.517 92.5634 45.1197 91.4561 44.2061 91.0212L39.3998 88.7671C41.4653 83.8241 44.9608 79.9883 47.8606 77.1412C53.0641 72.0399 54.8516 64.6452 56.4008 58.0413L111.416 45.6244C112.369 45.4267 113.203 44.8731 113.759 44.0822V44.0031ZM40.9489 93.5125L35.0701 105.811L4.36491 91.2584L10.2438 78.9602L40.9489 93.5125ZM55.6858 45.2685C55.6064 45.5849 55.5269 45.8617 55.4475 46.178C54.8119 48.7484 54.0175 51.9515 53.1436 55.7082L52.8655 56.9736C51.3561 63.4193 49.8069 70.0627 45.3183 74.4521C42.4186 77.2993 38.4862 81.5701 36.1028 87.1063L17.076 78.0902C19.4196 71.9609 21.2468 61.8375 20.6112 56.9341C20.4523 55.5895 20.2537 54.4032 20.0551 53.3751C19.3401 49.1043 19.0223 47.1666 21.9221 42.3422C22.5973 41.4327 29.9062 34.4334 36.5398 29.8067L38.6053 38.9414C33.0442 44.8335 33.0045 49.8161 34.8714 52.5842C36.4603 54.9173 39.4792 55.7477 42.22 54.6009C44.7622 53.5332 46.1922 49.5788 47.6222 45.743C48.1783 44.1613 48.7344 42.6981 49.2111 41.8282C50.0453 40.365 51.3164 39.0205 54.6133 40.1673C56.52 40.8396 56.6789 41.5513 55.6858 45.308V45.2685ZM39.6381 43.489L41.3064 50.7652C41.1475 50.9629 40.9886 51.121 40.79 51.2397C39.6778 51.7142 38.5656 51.4374 37.93 50.5279C37.0164 49.1834 37.3342 46.613 39.6381 43.4495V43.489ZM110.582 41.9863L57.3144 54.0078C57.7116 52.3865 58.0691 50.8838 58.3869 49.4997L67.8408 47.4039C68.8338 47.1666 69.4694 46.178 69.231 45.1894C68.9927 44.2008 68.0394 43.5681 67.0463 43.8054L59.38 45.5058C60.1347 42.619 60.8099 38.3878 55.7652 36.6874C53.5011 35.8965 51.4753 35.8965 49.7672 36.5688L48.0592 29.0949C50.9192 27.8295 52.9053 25.2196 53.4216 22.1747L61.6838 20.2766C62.6769 20.0393 63.3124 19.0902 63.0741 18.1016C62.8358 17.113 61.8824 16.4803 60.8894 16.7176L51.3958 18.8925C50.7603 19.0507 50.2836 19.4857 50.085 20.0788C49.9658 20.3161 49.9261 20.5534 49.9261 20.7906C49.8467 23.361 48.0592 25.5359 45.5567 26.0896C44.5636 26.3268 43.9281 27.2759 44.1664 28.2645L46.6292 39.0996C46.3908 39.416 46.1922 39.7323 46.0333 40.0487C45.3978 41.1954 44.802 42.8168 44.1664 44.5172C44.087 44.7544 43.9678 45.0312 43.8884 45.308L37.7314 18.2203C37.7314 18.2203 37.8109 18.2203 37.8109 18.1807L101.922 3.70753C101.922 3.70753 102.002 3.70753 102.041 3.70753L110.741 41.9468C110.741 41.9468 110.661 41.9468 110.661 41.9863H110.582Z" fill="black"/>
<path d="M98.5239 14.0224C96.0516 14.5701 93.5009 13.3965 92.3236 11.1274C91.8919 10.345 91.0286 9.91469 90.1653 10.032L80.7863 12.1055C79.8052 12.3402 79.1774 13.2791 79.4128 14.2571C79.6483 15.2352 80.5901 15.8611 81.5712 15.6264L89.7336 13.8268C91.4995 16.3306 94.4034 17.8172 97.5036 17.7389L100.368 30.2577C97.5429 31.5096 95.5807 34.0916 95.0706 37.1039L86.9081 38.9817C85.9271 39.2165 85.3384 40.1945 85.5739 41.1725C85.8093 42.1506 86.7904 42.7374 87.7715 42.5026L97.1504 40.351C97.9745 40.0771 98.5631 39.3338 98.6416 38.434C98.7201 35.9303 100.447 33.8177 102.841 33.1918C102.88 33.1918 102.919 33.1918 102.958 33.1918C103.9 32.9962 104.528 32.0573 104.371 31.1184C104.371 31.1184 104.371 31.0401 104.371 31.001L100.8 15.3134C100.565 14.3354 99.5835 13.7094 98.6024 13.9442L98.5239 14.0224Z" fill="black"/>
</svg>
