<svg width="125" height="99" viewBox="0 0 125 99" fill="none" xmlns="http://www.w3.org/2000/svg">
<g clip-path="url(#clip0_5358_42146)">
<path d="M115.879 45.2296C115.423 42.7823 112.978 40.7882 110.442 40.7882H103.36V32.0642L112.955 5.93736C113.778 3.67137 112.613 1.17879 110.328 0.363031C108.043 -0.452724 105.53 0.702929 104.685 2.96892L98.1058 20.8929C96.7579 19.8732 95.2044 19.1254 93.5367 18.6722C96.7122 17.3579 98.951 14.2535 98.951 10.6053C98.951 5.77874 95.0217 1.88124 90.1556 1.88124C85.2896 1.88124 81.3602 5.77874 81.3602 10.6053C81.3602 14.2535 83.6218 17.3579 86.7973 18.6722C85.1068 19.1254 83.5305 19.8958 82.1826 20.9155L75.9458 2.96892C75.1462 0.680269 72.6333 -0.520704 70.3487 0.249732C68.0414 1.04283 66.8305 3.53541 67.6073 5.8014L76.9739 32.744V40.8109H48.5315V31.8829L61.0735 11.1944C62.3072 9.1324 61.6447 6.45854 59.5657 5.21224C57.4868 3.96595 54.7911 4.64575 53.5346 6.70779L44.3736 21.7993C42.7973 20.3264 40.8554 19.2387 38.708 18.6722C41.9063 17.3579 44.1452 14.2535 44.1452 10.6053C44.1452 5.77874 40.2158 1.88124 35.3497 1.88124C30.4837 1.88124 26.5543 5.77874 26.5543 10.6053C26.5543 14.2535 28.816 17.3579 31.9915 18.6722C30.2552 19.1254 28.656 19.9185 27.2625 21.0062L18.6041 6.70779C17.3476 4.64575 14.6519 3.98861 12.5729 5.21224C10.4712 6.45854 9.80867 9.1324 11.0652 11.1944L22.2594 29.6849C22.1908 30.2287 22.168 30.7726 22.168 31.3391V40.8109H14.5376C12.0018 40.8109 9.55737 42.805 9.10046 45.2522L0.807617 88.374H124.172L115.879 45.2296Z" fill="black"/>
<path d="M124.103 92.9058H0.646484V98.7973H124.103V92.9058Z" fill="black"/>
</g>
<defs>
<clipPath id="clip0_5358_42146">
<rect width="123.525" height="98.8197" fill="white" transform="translate(0.646484)"/>
</clipPath>
</defs>
</svg>
