<svg width="537" height="142" viewBox="0 0 537 142" fill="none" xmlns="http://www.w3.org/2000/svg">
<path d="M0.0901341 141.442V36.6878H39.3049V141.442H0.0901341Z" fill="white" stroke="white" stroke-width="0.180268"/>
<path d="M51.3089 36.6507L83.4245 36.6507C96.4601 36.6507 107.04 47.0949 107.04 59.9582C107.04 72.8214 96.4601 83.2657 83.4245 83.2657H51.3089L51.3089 36.6507Z" fill="white" stroke="white" stroke-width="0.180268"/>
<path d="M51.1819 94.5882H82.5682C93.9834 94.5882 103.267 104.686 103.267 117.136C103.267 129.586 93.9834 139.684 82.5682 139.684H51.1819V94.5882Z" fill="white" stroke="white" stroke-width="0.180268"/>
<path d="M0.829956 0.0901341L103.183 0.0901341V25.3164L0.829956 25.3164V0.0901341Z" fill="white" stroke="white" stroke-width="0.180268"/>
<path d="M140.413 51.3022L140.844 51.5175C140.844 51.7758 140.901 52.0055 141.016 52.2064C141.217 52.5508 141.604 52.8953 142.178 53.2397C142.781 53.5554 143.456 53.8425 144.202 54.1008C144.977 54.3591 145.781 54.5744 146.613 54.7466C147.445 54.8901 148.192 54.9619 148.852 54.9619C149.34 54.9619 149.971 54.9332 150.746 54.8758C151.521 54.7897 152.282 54.6318 153.028 54.4022C153.774 54.1726 154.42 53.8568 154.966 53.455C155.511 53.0531 155.784 52.5221 155.784 51.862C155.784 51.2018 155.525 50.7138 155.009 50.3981C154.521 50.0824 153.86 49.8527 153.028 49.7092C152.224 49.5657 151.292 49.4796 150.23 49.4509C149.196 49.3935 148.134 49.3217 147.043 49.2356C145.953 49.1495 144.876 49.006 143.814 48.8051C142.781 48.6042 141.848 48.2741 141.016 47.8148C140.212 47.3269 139.552 46.6811 139.035 45.8774C138.547 45.045 138.303 43.9686 138.303 42.6483C138.303 41.7585 138.504 40.883 138.906 40.022C139.337 39.1609 139.983 38.4002 140.844 37.7401C141.705 37.0799 142.795 36.5489 144.116 36.147C145.436 35.7165 146.986 35.5012 148.766 35.5012C150.287 35.5012 151.607 35.616 152.727 35.8457C153.846 36.0753 154.808 36.3193 155.611 36.5776C156.444 36.8359 157.133 37.0799 157.678 37.3095C158.252 37.5391 158.726 37.654 159.099 37.654C159.501 37.654 159.788 37.5678 159.96 37.3956L160.476 37.7401L157.506 43.1219L157.075 42.9497C157.018 42.5478 156.903 42.2177 156.731 41.9594C156.501 41.615 156.114 41.2849 155.568 40.9692C155.052 40.6247 154.435 40.3233 153.717 40.065C152.999 39.8067 152.224 39.6058 151.392 39.4622C150.56 39.29 149.727 39.2039 148.895 39.2039C148.263 39.2039 147.603 39.2613 146.914 39.3761C146.254 39.4622 145.651 39.6058 145.106 39.8067C144.561 40.0076 144.101 40.2803 143.728 40.6247C143.384 40.9405 143.212 41.3423 143.212 41.8302C143.212 42.5191 143.456 43.0358 143.944 43.3802C144.46 43.7246 145.12 43.983 145.924 44.1552C146.756 44.3274 147.689 44.4422 148.723 44.4996C149.785 44.557 150.861 44.6288 151.952 44.7149C153.042 44.801 154.104 44.9589 155.138 45.1885C156.2 45.3894 157.133 45.7339 157.936 46.2218C158.769 46.6811 159.429 47.3125 159.917 48.1162C160.433 48.9199 160.692 49.9676 160.692 51.2592C160.692 52.7518 160.29 53.9716 159.486 54.9188C158.711 55.866 157.735 56.6123 156.559 57.1577C155.382 57.703 154.104 58.0762 152.727 58.2771C151.378 58.4493 150.115 58.5354 148.938 58.5354C147.302 58.5354 145.924 58.4493 144.805 58.2771C143.714 58.0762 142.795 57.8465 142.049 57.5882C141.332 57.3012 140.758 57.0572 140.327 56.8563C139.896 56.6267 139.523 56.5118 139.208 56.5118C139.007 56.5118 138.82 56.6267 138.648 56.8563L138.045 56.5118L140.413 51.3022ZM188.72 40.4094C188.72 40.0937 188.591 39.8641 188.332 39.7206C188.103 39.5484 187.687 39.4622 187.084 39.4622H173.134V44.801H181.573C182.147 44.801 182.592 44.7293 182.908 44.5857C183.223 44.4135 183.381 43.9973 183.381 43.3372H184.156V50.0537H183.381C183.381 49.3935 183.223 48.9773 182.908 48.8051C182.592 48.6042 182.147 48.5037 181.573 48.5037H173.134V54.4452H187.514C187.945 54.4452 188.289 54.3448 188.548 54.1438C188.835 53.9429 188.978 53.6702 188.978 53.3258H189.753V59.2243H188.978C188.978 58.7937 188.835 58.5498 188.548 58.4924C188.289 58.435 187.945 58.4062 187.514 58.4062H167.451V57.6313C167.652 57.6313 167.824 57.5739 167.968 57.459C168.14 57.3155 168.226 57.1146 168.226 56.8563V37.3095C168.226 37.0512 168.14 36.8646 167.968 36.7498C167.824 36.6063 167.652 36.5345 167.451 36.5345V35.7596H187.084C187.687 35.7596 188.103 35.6734 188.332 35.5012C188.591 35.3003 188.72 35.042 188.72 34.7262H189.495V40.4094H188.72ZM209.214 39.4622C208.123 39.4622 207.032 39.6345 205.941 39.9789C204.851 40.3233 203.86 40.8256 202.971 41.4858C202.11 42.1173 201.406 42.9066 200.861 43.8538C200.316 44.801 200.043 45.8774 200.043 47.0829C200.043 48.2884 200.316 49.3648 200.861 50.312C201.406 51.2592 202.11 52.0629 202.971 52.723C203.86 53.3545 204.851 53.8425 205.941 54.1869C207.032 54.5313 208.123 54.7036 209.214 54.7036C210.304 54.7036 211.395 54.5313 212.486 54.1869C213.576 53.8425 214.552 53.3545 215.413 52.723C216.303 52.0629 217.021 51.2592 217.566 50.312C218.112 49.3648 218.384 48.2884 218.384 47.0829C218.384 45.8774 218.112 44.801 217.566 43.8538C217.021 42.9066 216.303 42.1173 215.413 41.4858C214.552 40.8256 213.576 40.3233 212.486 39.9789C211.395 39.6345 210.304 39.4622 209.214 39.4622ZM209.214 35.5012C210.792 35.5012 212.4 35.7452 214.036 36.2332C215.672 36.6924 217.164 37.3956 218.513 38.3428C219.862 39.29 220.967 40.4956 221.829 41.9594C222.69 43.3946 223.12 45.1024 223.12 47.0829C223.12 49.0634 222.69 50.7856 221.829 52.2494C220.967 53.6846 219.862 54.8758 218.513 55.823C217.164 56.7702 215.672 57.459 214.036 57.8896C212.4 58.3201 210.792 58.5354 209.214 58.5354C207.635 58.5354 206.028 58.3201 204.391 57.8896C202.755 57.459 201.263 56.7702 199.914 55.823C198.565 54.8758 197.46 53.6846 196.599 52.2494C195.737 50.7856 195.307 49.0634 195.307 47.0829C195.307 45.1024 195.737 43.3946 196.599 41.9594C197.46 40.4956 198.565 39.29 199.914 38.3428C201.263 37.3956 202.755 36.6924 204.391 36.2332C206.028 35.7452 207.635 35.5012 209.214 35.5012ZM235.878 36.5345C235.247 36.5345 234.931 36.7929 234.931 37.3095V50.2259C234.931 52.0342 235.505 53.2828 236.653 53.9716C237.83 54.6318 239.538 54.9619 241.777 54.9619C244.015 54.9619 245.709 54.6318 246.857 53.9716C248.034 53.2828 248.622 52.0342 248.622 50.2259V37.3095C248.622 36.7929 248.192 36.5345 247.331 36.5345V35.7596H254.219V36.5345C253.531 36.5345 253.186 36.7929 253.186 37.3095V50.0106C253.186 51.7041 252.942 53.1105 252.454 54.23C251.966 55.3207 251.234 56.1961 250.258 56.8563C249.282 57.5165 248.063 57.9614 246.599 58.191C245.164 58.4206 243.499 58.5354 241.604 58.5354C239.71 58.5354 238.031 58.4206 236.567 58.191C235.132 57.9614 233.926 57.5165 232.95 56.8563C231.975 56.1961 231.243 55.3207 230.755 54.23C230.267 53.1105 230.023 51.7041 230.023 50.0106V37.3095C230.023 36.7929 229.621 36.5345 228.817 36.5345V35.7596H235.878V36.5345ZM281.76 59.2243C281.76 58.7937 281.617 58.5498 281.33 58.4924C281.072 58.435 280.727 58.4062 280.297 58.4062H259.803V57.6313C260.664 57.6313 261.094 57.3729 261.094 56.8563V37.3095C261.094 36.7929 260.664 36.5345 259.803 36.5345V35.7596H267.208V36.5345C266.404 36.5345 266.003 36.7929 266.003 37.3095V54.4452H280.297C280.727 54.4452 281.072 54.3448 281.33 54.1438C281.617 53.9429 281.76 53.6702 281.76 53.3258H282.535V59.2243H281.76ZM324.084 55.3063C323.998 55.3063 323.912 55.3063 323.825 55.3063C323.768 55.2776 323.696 55.2633 323.61 55.2633C323.438 55.2633 323.022 55.4355 322.362 55.7799C321.73 56.1244 320.912 56.5118 319.908 56.9424C318.932 57.3729 317.812 57.7461 316.549 58.0618C315.286 58.3775 313.966 58.5354 312.588 58.5354C310.78 58.5354 309.043 58.3058 307.379 57.8465C305.714 57.3873 304.236 56.6841 302.944 55.7369C301.681 54.761 300.676 53.5554 299.93 52.1203C299.184 50.6851 298.811 49.006 298.811 47.0829C298.811 45.1885 299.184 43.5237 299.93 42.0886C300.676 40.6247 301.681 39.4048 302.944 38.4289C304.236 37.453 305.714 36.7211 307.379 36.2332C309.043 35.7452 310.78 35.5012 312.588 35.5012C314.052 35.5012 315.372 35.616 316.549 35.8457C317.755 36.0753 318.802 36.3193 319.692 36.5776C320.582 36.8359 321.285 37.0799 321.802 37.3095C322.319 37.5391 322.634 37.654 322.749 37.654C322.893 37.654 323.007 37.5822 323.094 37.4387C323.208 37.2952 323.294 37.1804 323.352 37.0942L323.998 37.6109L320.639 42.8205L320.209 42.5191C320.209 42.433 320.195 42.3469 320.166 42.2608C320.166 42.1747 320.151 42.0742 320.123 41.9594C320.065 41.6437 319.778 41.3279 319.262 41.0122C318.745 40.6678 318.099 40.3664 317.324 40.1081C316.578 39.8497 315.774 39.6345 314.913 39.4622C314.081 39.29 313.306 39.2039 312.588 39.2039C311.383 39.2039 310.22 39.3761 309.101 39.7206C308.01 40.065 307.049 40.5673 306.216 41.2275C305.412 41.8877 304.767 42.7057 304.279 43.6816C303.791 44.6288 303.547 45.7195 303.547 46.9537C303.547 48.188 303.791 49.293 304.279 50.2689C304.767 51.2161 305.412 52.0198 306.216 52.68C307.049 53.3402 308.01 53.8425 309.101 54.1869C310.22 54.5313 311.383 54.7036 312.588 54.7036C313.507 54.7036 314.468 54.6031 315.473 54.4022C316.477 54.1726 317.396 53.8999 318.228 53.5841C319.061 53.2397 319.75 52.8666 320.295 52.4647C320.869 52.0342 321.156 51.6323 321.156 51.2592C321.156 51.0583 321.099 50.8861 320.984 50.7425L321.587 50.3981L324.428 54.9619L324.084 55.3063ZM331.131 57.6313C331.877 57.6313 332.25 57.3729 332.25 56.8563V37.3095C332.25 36.7929 331.877 36.5345 331.131 36.5345V35.7596H338.278V36.5345C337.532 36.5345 337.159 36.7929 337.159 37.3095V56.8563C337.159 57.3729 337.532 57.6313 338.278 57.6313V58.4062H331.131V57.6313ZM357.481 56.8563C357.481 57.3729 357.796 57.6313 358.428 57.6313V58.4062H351.797V57.6313C351.998 57.6313 352.171 57.5739 352.314 57.459C352.486 57.3155 352.572 57.1146 352.572 56.8563V39.7206H345.468C345.21 39.7206 344.952 39.7923 344.693 39.9358C344.464 40.0794 344.349 40.352 344.349 40.7539H343.574V34.7262H344.349C344.349 35.1281 344.464 35.4008 344.693 35.5443C344.952 35.6878 345.21 35.7596 345.468 35.7596H364.585C364.843 35.7596 365.087 35.6878 365.317 35.5443C365.575 35.4008 365.704 35.1281 365.704 34.7262H366.479V40.7539H365.704C365.704 40.352 365.575 40.0794 365.317 39.9358C365.087 39.7923 364.843 39.7206 364.585 39.7206H357.481V56.8563ZM377.644 35.7596V36.5345C377.386 36.5345 377.142 36.5776 376.912 36.6637C376.683 36.7211 376.568 36.8933 376.568 37.1804C376.568 37.3526 376.769 37.7688 377.171 38.4289C377.601 39.0604 378.089 39.7923 378.635 40.6247C379.209 41.4284 379.797 42.2608 380.4 43.1219C381.003 43.983 381.491 44.7149 381.864 45.3177L386.901 38.3859C387.131 38.0414 387.317 37.7688 387.461 37.5678C387.604 37.3669 387.676 37.1804 387.676 37.0081C387.676 36.8072 387.533 36.6781 387.245 36.6206C386.987 36.5632 386.743 36.5345 386.514 36.5345V35.7596H394.048V36.5345C393.818 36.5345 393.603 36.5632 393.402 36.6206C393.201 36.6493 392.986 36.7498 392.756 36.922C392.556 37.0655 392.326 37.2952 392.068 37.6109C391.838 37.8979 391.551 38.2998 391.207 38.8164L383.887 49.1926V56.8563C383.887 57.3729 384.217 57.6313 384.877 57.6313V58.4062H378.075V57.6313C378.333 57.6313 378.548 57.5739 378.721 57.459C378.893 57.3155 378.979 57.1146 378.979 56.8563V49.1926L370.669 37.5678C370.469 37.2808 370.153 37.0368 369.722 36.8359C369.32 36.635 368.976 36.5345 368.689 36.5345V35.7596H377.644ZM423.24 56.8563C423.24 57.3729 423.556 57.6313 424.187 57.6313V58.4062H417.557V57.6313C417.757 57.6313 417.93 57.5739 418.073 57.459C418.245 57.3155 418.332 57.1146 418.332 56.8563V39.7206H411.228C410.969 39.7206 410.711 39.7923 410.453 39.9358C410.223 40.0794 410.108 40.352 410.108 40.7539H409.333V34.7262H410.108C410.108 35.1281 410.223 35.4008 410.453 35.5443C410.711 35.6878 410.969 35.7596 411.228 35.7596H430.344C430.602 35.7596 430.846 35.6878 431.076 35.5443C431.334 35.4008 431.463 35.1281 431.463 34.7262H432.238V40.7539H431.463C431.463 40.352 431.334 40.0794 431.076 39.9358C430.846 39.7923 430.602 39.7206 430.344 39.7206H423.24V56.8563ZM450.723 39.4622C449.632 39.4622 448.541 39.6345 447.451 39.9789C446.36 40.3233 445.37 40.8256 444.48 41.4858C443.619 42.1173 442.915 42.9066 442.37 43.8538C441.825 44.801 441.552 45.8774 441.552 47.0829C441.552 48.2884 441.825 49.3648 442.37 50.312C442.915 51.2592 443.619 52.0629 444.48 52.723C445.37 53.3545 446.36 53.8425 447.451 54.1869C448.541 54.5313 449.632 54.7036 450.723 54.7036C451.813 54.7036 452.904 54.5313 453.995 54.1869C455.086 53.8425 456.061 53.3545 456.923 52.723C457.812 52.0629 458.53 51.2592 459.075 50.312C459.621 49.3648 459.893 48.2884 459.893 47.0829C459.893 45.8774 459.621 44.801 459.075 43.8538C458.53 42.9066 457.812 42.1173 456.923 41.4858C456.061 40.8256 455.086 40.3233 453.995 39.9789C452.904 39.6345 451.813 39.4622 450.723 39.4622ZM450.723 35.5012C452.301 35.5012 453.909 35.7452 455.545 36.2332C457.181 36.6924 458.673 37.3956 460.022 38.3428C461.372 39.29 462.477 40.4956 463.338 41.9594C464.199 43.3946 464.629 45.1024 464.629 47.0829C464.629 49.0634 464.199 50.7856 463.338 52.2494C462.477 53.6846 461.372 54.8758 460.022 55.823C458.673 56.7702 457.181 57.459 455.545 57.8896C453.909 58.3201 452.301 58.5354 450.723 58.5354C449.144 58.5354 447.537 58.3201 445.901 57.8896C444.265 57.459 442.772 56.7702 441.423 55.823C440.074 54.8758 438.969 53.6846 438.108 52.2494C437.247 50.7856 436.816 49.0634 436.816 47.0829C436.816 45.1024 437.247 43.3946 438.108 41.9594C438.969 40.4956 440.074 39.29 441.423 38.3428C442.772 37.3956 444.265 36.6924 445.901 36.2332C447.537 35.7452 449.144 35.5012 450.723 35.5012ZM477.387 36.5345C476.756 36.5345 476.44 36.7929 476.44 37.3095V50.2259C476.44 52.0342 477.014 53.2828 478.162 53.9716C479.339 54.6318 481.047 54.9619 483.286 54.9619C485.525 54.9619 487.218 54.6318 488.366 53.9716C489.543 53.2828 490.131 52.0342 490.131 50.2259V37.3095C490.131 36.7929 489.701 36.5345 488.84 36.5345V35.7596H495.728V36.5345C495.04 36.5345 494.695 36.7929 494.695 37.3095V50.0106C494.695 51.7041 494.451 53.1105 493.963 54.23C493.475 55.3207 492.743 56.1961 491.767 56.8563C490.792 57.5165 489.572 57.9614 488.108 58.191C486.673 58.4206 485.008 58.5354 483.114 58.5354C481.219 58.5354 479.54 58.4206 478.076 58.191C476.641 57.9614 475.435 57.5165 474.46 56.8563C473.484 56.1961 472.752 55.3207 472.264 54.23C471.776 53.1105 471.532 51.7041 471.532 50.0106V37.3095C471.532 36.7929 471.13 36.5345 470.326 36.5345V35.7596H477.387V36.5345ZM515.606 45.8343C516.639 45.8343 517.5 45.7626 518.189 45.619C518.878 45.4468 519.423 45.2172 519.825 44.9302C520.227 44.6431 520.514 44.3131 520.686 43.9399C520.859 43.5381 520.945 43.1075 520.945 42.6483C520.945 42.189 520.859 41.7728 520.686 41.3997C520.514 40.9979 520.227 40.6534 519.825 40.3664C519.423 40.0794 518.878 39.8641 518.189 39.7206C517.5 39.5484 516.639 39.4622 515.606 39.4622H508.157V45.8343H515.606ZM516.725 35.7596C518.103 35.7596 519.352 35.8887 520.471 36.147C521.59 36.3767 522.552 36.7642 523.356 37.3095C524.159 37.8262 524.777 38.515 525.207 39.3761C525.638 40.2085 525.853 41.2418 525.853 42.4761C525.853 44.3705 525.293 45.82 524.174 46.8246C523.054 47.8292 521.547 48.5037 519.653 48.8481L525.379 57.0285C525.58 57.3155 525.81 57.4878 526.068 57.5452C526.355 57.6026 526.614 57.6313 526.843 57.6313V58.4062H518.792V57.6313C519.05 57.6313 519.266 57.5882 519.438 57.5021C519.639 57.416 519.739 57.3012 519.739 57.1577C519.739 57.0142 519.682 56.8563 519.567 56.6841C519.452 56.4831 519.28 56.2248 519.05 55.9091L514.314 49.1926H508.157V56.8563C508.157 57.1146 508.244 57.3155 508.416 57.459C508.617 57.5739 508.961 57.6313 509.449 57.6313V58.4062H502.001V57.6313C502.833 57.6313 503.249 57.3729 503.249 56.8563V37.3095C503.249 36.7929 502.833 36.5345 502.001 36.5345V35.7596H516.725ZM153.286 116.406H145.149V92.8554H135.677V85.4931H162.758V92.8554H153.286V116.406ZM174.563 116.406H166.426V85.4931H174.563V116.406ZM194.846 117.052C185.848 117.052 178.787 110.422 178.787 100.777C178.787 91.6499 185.503 84.8473 194.588 84.8473C202.338 84.8473 208.064 89.3249 210.217 96.2567H200.572C199.797 93.8887 197.516 92.1235 194.373 92.1235C190.368 92.1235 187.139 94.922 187.139 100.993C187.139 106.159 189.68 110.163 195.277 110.163C198.807 110.163 201.003 108.183 201.907 105.6H194.459V99.1844H210.604C211.25 109.388 205.093 117.052 194.846 117.052ZM236.734 109.345V116.406H214.862V85.4931H236.432V92.554H222.999V96.9886H235.184V104.05H222.999V109.345H236.734ZM249.53 116.406H241.393V85.4931H254.051C262.403 85.4931 267.182 89.2388 267.182 95.8262C267.182 99.7872 264.814 103.059 260.638 104.825L268.216 116.406H258.529L252.2 106.116H249.53V116.406ZM249.53 92.2096V99.3997H253.706C257.323 99.3997 259.002 98.2803 259.002 95.8262C259.002 93.3721 257.323 92.2096 253.706 92.2096H249.53ZM305.156 107.106C305.156 112.919 300.851 116.406 293.661 116.406H280.873V85.4931H293.273C300.033 85.4931 304.252 88.4638 304.252 93.8457C304.252 96.5581 302.831 98.6678 300.248 100.218C303.391 101.552 305.156 103.834 305.156 107.106ZM292.627 91.9082H288.236V97.247H292.627C295.34 97.247 296.588 96.2137 296.588 94.5345C296.588 92.9415 295.34 91.9082 292.627 91.9082ZM293.015 103.662H288.236V109.991H293.015C296.072 109.991 297.493 108.786 297.493 106.805C297.493 104.911 296.072 103.662 293.015 103.662ZM335.949 85.4931V104.093C335.949 111.584 331.256 117.052 322.559 117.052C313.776 117.052 309.126 111.584 309.126 104.093V85.4931H317.263V104.222C317.263 107.451 318.426 109.776 322.559 109.776C326.649 109.776 327.812 107.451 327.812 104.222V85.4931H335.949ZM366.638 106.288C366.638 112.661 361.557 116.837 353.506 116.837C345.455 116.837 340.288 112.574 339.729 105.729H347.952C348.038 108.656 349.976 110.508 353.334 110.508C356.133 110.508 357.984 109.431 357.984 107.494C357.984 106.159 356.649 105.169 354.841 104.825L349.201 103.748C344.249 102.801 340.977 99.9164 340.977 94.922C340.977 89.1527 346.058 85.1056 352.99 85.1056C360.352 85.1056 365.648 89.3249 366.121 95.9984H357.898C357.682 93.1998 355.788 91.3916 353.076 91.3916C350.665 91.3916 349.201 92.6832 349.201 94.3623C349.201 95.7401 350.578 96.5581 352.215 96.8595L358.199 98.022C363.71 99.0983 366.638 101.811 366.638 106.288Z" fill="white"/>
</svg>
